<svg width="100%" height="100%" viewBox="0 0 20 20" fill="currentColor" xmlns="http://www.w3.org/2000/svg">
    <path fill-rule="evenodd" clip-rule="evenodd"
          d="M2.35512 0C1.3813 0 0.591858 0.789442 0.591858 1.76327V8.81633C0.591858 9.79015 1.3813 10.5796 2.35512 10.5796H7.64492C8.61874 10.5796 9.40818 9.79015 9.40818 8.81633V1.76327C9.40818 0.789441 8.61874 0 7.64492 0H2.35512ZM12.9347 8.81635C11.9609 8.81635 11.1714 9.60579 11.1714 10.5796V17.6327C11.1714 18.6065 11.9609 19.3959 12.9347 19.3959H18.2245C19.1983 19.3959 19.9878 18.6065 19.9878 17.6327V10.5796C19.9878 9.60579 19.1983 8.81635 18.2245 8.81635H12.9347ZM11.1714 1.76327C11.1714 0.789442 11.9609 0 12.9347 0H18.2245C19.1983 0 19.9878 0.789441 19.9878 1.76327V5.28979C19.9878 6.26362 19.1983 7.05306 18.2245 7.05306H12.9347C11.9609 7.05306 11.1714 6.26362 11.1714 5.2898V1.76327ZM2.35512 12.3429C1.3813 12.3429 0.591858 13.1323 0.591858 14.1062V17.6327C0.591858 18.6065 1.3813 19.396 2.35512 19.396H7.64492C8.61874 19.396 9.40818 18.6065 9.40818 17.6327V14.1062C9.40818 13.1323 8.61874 12.3429 7.64492 12.3429H2.35512Z"/>
</svg>
