<svg width="100%" height="100%" viewBox="0 0 21 21" fill="currentColor" xmlns="http://www.w3.org/2000/svg">
    <path fill-rule="evenodd" clip-rule="evenodd"
          d="M10.2857 0C4.608 0 0 4.608 0 10.2857C0 15.9634 4.608 20.5714 10.2857 20.5714C15.9634 20.5714 20.5714 15.9634 20.5714 10.2857C20.5714 4.608 15.9634 0 10.2857 0ZM10.2857 3.08571C11.9931 3.08571 13.3714 4.464 13.3714 6.17143C13.3714 7.87886 11.9931 9.25714 10.2857 9.25714C8.57829 9.25714 7.2 7.87886 7.2 6.17143C7.2 4.464 8.57829 3.08571 10.2857 3.08571ZM4.11429 14.3794C5.44114 16.3749 7.71429 17.6914 10.2857 17.6914C12.8571 17.6914 15.1303 16.3749 16.4571 14.3794C16.4263 12.3326 12.3326 11.2114 10.2857 11.2114C8.22857 11.2114 4.14514 12.3326 4.11429 14.3794Z"/>
</svg>
