<svg width="100%" height="100%" viewBox="0 0 16 21" fill="currentColor" xmlns="http://www.w3.org/2000/svg">
    <path d="M0 14.0071C0 17.811 3.13208 20.5 7.54717 20.5C12.5566 20.5 16 17.2863 16 12.0021C16 3.75708 8.71698 0 3.40566 0C2.56604 0 2.15094 0.412249 2.15094 0.890082C2.15094 1.27422 2.35849 1.59278 2.66981 2.03314C3.43396 3.06376 4.70755 4.56284 4.70755 6.44607C4.70755 6.60535 4.69811 6.76463 4.68868 6.93327C4.16038 5.9495 3.21698 5.25617 2.08491 5.25617C1.77358 5.25617 1.60377 5.44356 1.60377 5.71527C1.60377 6.04319 1.66981 6.27742 1.66981 7.29867C1.66981 9.25686 0 10.5779 0 14.0071ZM7.74528 17.8672C5.84906 17.8672 4.60377 16.7335 4.60377 15.0471C4.60377 13.2763 5.86792 12.6485 6.0283 11.5055C6.04717 11.4118 6.10377 11.3837 6.17924 11.4493C6.65094 11.8521 6.93396 12.3581 7.16038 12.939C7.21698 13.042 7.28302 13.0514 7.33019 12.9671C7.84906 12.0676 7.9434 10.7278 7.83019 9.04136C7.80189 8.94767 7.87736 8.90082 7.96226 8.9383C10.1887 9.95018 11.3302 12.152 11.3302 14.1289C11.3302 16.1152 10.1509 17.8672 7.74528 17.8672Z"/>
</svg>
