<svg width="100%" height="100%" viewBox="0 0 66 20" fill="currentColor" xmlns="http://www.w3.org/2000/svg">
    <path fill-rule="evenodd" clip-rule="evenodd"
          d="M59.5046 19.8312C58.6013 19.9437 57.4233 20 55.9705 20C53.9218 20 52.2595 19.7984 50.9837 19.3952C49.7079 18.992 48.6137 18.331 47.7011 17.4121C45.9131 15.6118 45.0191 13.1364 45.0191 9.98594C45.0191 6.66667 45.82 4.20066 47.4217 2.5879C48.4647 1.53774 49.6288 0.843882 50.9139 0.506329C52.199 0.168776 53.8845 0 55.9705 0C57.8889 0 59.4487 0.135959 60.65 0.407876C61.8513 0.679794 62.8338 1.25645 63.5974 2.13783C64.2306 2.8692 64.7242 3.75059 65.0781 4.782C65.4319 5.81341 65.6368 6.83544 65.6927 7.8481H64.1003C64.0258 7.00422 63.8256 6.1369 63.4996 5.24613C63.1737 4.35537 62.6662 3.5865 61.977 2.93952C61.2879 2.29255 60.4125 1.96906 59.3509 1.96906C58.3452 1.96906 57.535 2.40975 56.9204 3.29114C56.3803 3.985 55.9705 5.00703 55.6911 6.35724C55.4863 7.38865 55.3838 8.59822 55.3838 9.98594C55.3838 12.18 55.6446 13.9522 56.1661 15.3024C56.8366 17.1214 57.8982 18.0309 59.3509 18.0309C60.7478 18.0309 61.856 17.459 62.6755 16.3151C63.495 15.1711 64.0258 13.7834 64.2679 12.1519H66C65.7393 14.1772 65.0781 15.9025 64.0165 17.3277C63.4205 18.1153 62.7453 18.7014 61.991 19.0858C61.2367 19.4702 60.4079 19.7187 59.5046 19.8312ZM20.4222 19.8594V18.1716H9.80599V0.168776H0V19.8594H20.4222ZM32.4413 20C34.6762 20 36.4642 19.8265 37.8052 19.4796C39.1462 19.1327 40.1519 18.5232 40.8224 17.6512C41.4929 16.7792 41.8282 15.5462 41.8282 13.9522V0.168776H40.1799V13.9522C40.1799 16.5026 39.0996 17.7778 36.9392 17.7778C35.9707 17.7778 35.1931 17.473 34.6064 16.8636C34.0197 16.2541 33.7264 15.2836 33.7264 13.9522V0.168776H23.0543V13.9522C23.0543 15.9962 23.776 17.5152 25.2195 18.5091C26.6629 19.503 29.0702 20 32.4413 20Z"/>
</svg>
