<svg width="100%" height="100%" viewBox="0 0 21 20" fill="currentColor" xmlns="http://www.w3.org/2000/svg">
<path fill-rule="evenodd" clip-rule="evenodd" d="M7.64531 0C6.48867 0 5.49199 0.864746 5.2582 2.06369L5.05312 3.20833H2.46914C1.10332 3.20833 0 4.33209 0 5.71067V16.7602C0 18.1388 1.10332 19.25 2.45684 19.25H18.5432C19.8967 19.25 21 18.1388 21 16.7602V5.69813C21 4.31955 19.8967 3.20833 18.5432 3.20833H15.9469L15.7377 2.06369C15.508 0.864746 14.5113 0 13.3547 0H7.64531ZM10.4672 6.41667C13.1373 6.41667 15.2988 8.5681 15.2988 11.2292C15.2988 13.8903 13.1373 16.0417 10.4672 16.0417C7.80117 16.0417 5.63554 13.8903 5.63554 11.2292C5.63554 8.5681 7.80117 6.41667 10.4672 6.41667ZM7.73555 11.2292C7.73555 9.75449 8.95782 8.55554 10.4672 8.55554C11.9725 8.55554 13.1988 9.75449 13.1988 11.2292C13.1988 12.7038 11.9725 13.9028 10.4672 13.9028C8.95782 13.9028 7.73555 12.7038 7.73555 11.2292Z"/>
</svg>
