<svg width="100%" height="100%" viewBox="0 0 19 19" fill="currentCOlor" xmlns="http://www.w3.org/2000/svg">
    <path fill-rule="evenodd" clip-rule="evenodd"
          d="M12.3429 8.38367C12.3429 10.8182 10.3693 12.7918 7.93469 12.7918C5.50013 12.7918 3.52653 10.8182 3.52653 8.38367C3.52653 5.94911 5.50013 3.97551 7.93469 3.97551C10.3693 3.97551 12.3429 5.94911 12.3429 8.38367ZM14.6527 12.608C15.4234 11.3848 15.8694 9.93629 15.8694 8.38367C15.8694 4.00146 12.3169 0.448975 7.93469 0.448975C3.55248 0.448975 0 4.00146 0 8.38367C0 12.7659 3.55248 16.3184 7.93469 16.3184C9.48733 16.3184 10.9358 15.8724 12.159 15.1016L15.5042 18.4468C16.1928 19.1354 17.3092 19.1354 17.9978 18.4468C18.6864 17.7582 18.6864 16.6418 17.9978 15.9532L14.6527 12.608Z"/>
</svg>
